<mxfile host="app.diagrams.net" modified="2022-09-28T04:26:57.502Z" agent="5.0 (Windows NT 10.0; Win64; x64) AppleWebKit/537.36 (KHTML, like Gecko) Chrome/104.0.5112.81 Safari/537.36 Edg/104.0.1293.47" etag="x7zuflSvI9uPQRB1YMuR" version="20.3.6" type="github">
  <diagram id="5SCZTquEuE8icrOXm7QI" name="Page-1">
    <mxGraphModel dx="2078" dy="726" grid="1" gridSize="10" guides="1" tooltips="1" connect="1" arrows="1" fold="1" page="1" pageScale="1" pageWidth="850" pageHeight="1100" math="0" shadow="0">
      <root>
        <mxCell id="0" />
        <mxCell id="1" parent="0" />
        <mxCell id="Qa7QMn2NVvZZ57gqNTlT-3" value="" style="edgeStyle=orthogonalEdgeStyle;rounded=0;orthogonalLoop=1;jettySize=auto;html=1;" edge="1" parent="1" source="Qa7QMn2NVvZZ57gqNTlT-1" target="Qa7QMn2NVvZZ57gqNTlT-2">
          <mxGeometry relative="1" as="geometry" />
        </mxCell>
        <mxCell id="Qa7QMn2NVvZZ57gqNTlT-1" value="User request SNOW product" style="rounded=0;whiteSpace=wrap;html=1;" vertex="1" parent="1">
          <mxGeometry x="310" y="280" width="120" height="60" as="geometry" />
        </mxCell>
        <mxCell id="Qa7QMn2NVvZZ57gqNTlT-5" value="" style="edgeStyle=orthogonalEdgeStyle;rounded=0;orthogonalLoop=1;jettySize=auto;html=1;" edge="1" parent="1" source="Qa7QMn2NVvZZ57gqNTlT-2" target="Qa7QMn2NVvZZ57gqNTlT-4">
          <mxGeometry relative="1" as="geometry" />
        </mxCell>
        <mxCell id="Qa7QMn2NVvZZ57gqNTlT-2" value="Request approved" style="rounded=0;whiteSpace=wrap;html=1;" vertex="1" parent="1">
          <mxGeometry x="310" y="380" width="120" height="60" as="geometry" />
        </mxCell>
        <mxCell id="Qa7QMn2NVvZZ57gqNTlT-7" value="" style="edgeStyle=orthogonalEdgeStyle;rounded=0;orthogonalLoop=1;jettySize=auto;html=1;" edge="1" parent="1" source="Qa7QMn2NVvZZ57gqNTlT-4" target="Qa7QMn2NVvZZ57gqNTlT-6">
          <mxGeometry relative="1" as="geometry" />
        </mxCell>
        <mxCell id="Qa7QMn2NVvZZ57gqNTlT-4" value="System add user to AAD group" style="rounded=0;whiteSpace=wrap;html=1;" vertex="1" parent="1">
          <mxGeometry x="310" y="480" width="120" height="60" as="geometry" />
        </mxCell>
        <mxCell id="Qa7QMn2NVvZZ57gqNTlT-9" value="" style="edgeStyle=orthogonalEdgeStyle;rounded=0;orthogonalLoop=1;jettySize=auto;html=1;" edge="1" parent="1" source="Qa7QMn2NVvZZ57gqNTlT-6" target="Qa7QMn2NVvZZ57gqNTlT-8">
          <mxGeometry relative="1" as="geometry" />
        </mxCell>
        <mxCell id="Qa7QMn2NVvZZ57gqNTlT-6" value="DSASCN admins manually provision extra access to the user" style="rounded=0;whiteSpace=wrap;html=1;" vertex="1" parent="1">
          <mxGeometry x="310" y="580" width="120" height="60" as="geometry" />
        </mxCell>
        <mxCell id="Qa7QMn2NVvZZ57gqNTlT-11" value="" style="edgeStyle=orthogonalEdgeStyle;rounded=0;orthogonalLoop=1;jettySize=auto;html=1;" edge="1" parent="1" source="Qa7QMn2NVvZZ57gqNTlT-8" target="Qa7QMn2NVvZZ57gqNTlT-10">
          <mxGeometry relative="1" as="geometry" />
        </mxCell>
        <mxCell id="Qa7QMn2NVvZZ57gqNTlT-8" value="DSASCN admins close the SNOW request" style="rounded=0;whiteSpace=wrap;html=1;" vertex="1" parent="1">
          <mxGeometry x="310" y="670" width="120" height="60" as="geometry" />
        </mxCell>
        <mxCell id="Qa7QMn2NVvZZ57gqNTlT-10" value="Done" style="rounded=0;whiteSpace=wrap;html=1;" vertex="1" parent="1">
          <mxGeometry x="310" y="760" width="120" height="60" as="geometry" />
        </mxCell>
        <mxCell id="Qa7QMn2NVvZZ57gqNTlT-13" value="" style="edgeStyle=orthogonalEdgeStyle;rounded=0;orthogonalLoop=1;jettySize=auto;html=1;" edge="1" parent="1" source="Qa7QMn2NVvZZ57gqNTlT-14" target="Qa7QMn2NVvZZ57gqNTlT-16">
          <mxGeometry relative="1" as="geometry" />
        </mxCell>
        <mxCell id="Qa7QMn2NVvZZ57gqNTlT-14" value="User request SNOW product" style="rounded=0;whiteSpace=wrap;html=1;" vertex="1" parent="1">
          <mxGeometry x="80" y="280" width="120" height="60" as="geometry" />
        </mxCell>
        <mxCell id="Qa7QMn2NVvZZ57gqNTlT-15" value="" style="edgeStyle=orthogonalEdgeStyle;rounded=0;orthogonalLoop=1;jettySize=auto;html=1;" edge="1" parent="1" source="Qa7QMn2NVvZZ57gqNTlT-16" target="Qa7QMn2NVvZZ57gqNTlT-18">
          <mxGeometry relative="1" as="geometry" />
        </mxCell>
        <mxCell id="Qa7QMn2NVvZZ57gqNTlT-16" value="Request approved" style="rounded=0;whiteSpace=wrap;html=1;" vertex="1" parent="1">
          <mxGeometry x="80" y="380" width="120" height="60" as="geometry" />
        </mxCell>
        <mxCell id="Qa7QMn2NVvZZ57gqNTlT-17" value="" style="edgeStyle=orthogonalEdgeStyle;rounded=0;orthogonalLoop=1;jettySize=auto;html=1;entryX=0.5;entryY=0;entryDx=0;entryDy=0;" edge="1" parent="1" source="Qa7QMn2NVvZZ57gqNTlT-18" target="Qa7QMn2NVvZZ57gqNTlT-22">
          <mxGeometry relative="1" as="geometry">
            <mxPoint x="140" y="580" as="targetPoint" />
          </mxGeometry>
        </mxCell>
        <mxCell id="Qa7QMn2NVvZZ57gqNTlT-18" value="System add user to AAD group" style="rounded=0;whiteSpace=wrap;html=1;" vertex="1" parent="1">
          <mxGeometry x="80" y="480" width="120" height="60" as="geometry" />
        </mxCell>
        <mxCell id="Qa7QMn2NVvZZ57gqNTlT-21" value="" style="edgeStyle=orthogonalEdgeStyle;rounded=0;orthogonalLoop=1;jettySize=auto;html=1;" edge="1" parent="1" source="Qa7QMn2NVvZZ57gqNTlT-22" target="Qa7QMn2NVvZZ57gqNTlT-23">
          <mxGeometry relative="1" as="geometry" />
        </mxCell>
        <mxCell id="Qa7QMn2NVvZZ57gqNTlT-22" value="System automatically close the SNOW request" style="rounded=0;whiteSpace=wrap;html=1;" vertex="1" parent="1">
          <mxGeometry x="80" y="670" width="120" height="60" as="geometry" />
        </mxCell>
        <mxCell id="Qa7QMn2NVvZZ57gqNTlT-23" value="Done" style="rounded=0;whiteSpace=wrap;html=1;" vertex="1" parent="1">
          <mxGeometry x="80" y="760" width="120" height="60" as="geometry" />
        </mxCell>
        <mxCell id="Qa7QMn2NVvZZ57gqNTlT-24" value="Standard workflow" style="text;html=1;strokeColor=none;fillColor=none;align=center;verticalAlign=middle;whiteSpace=wrap;rounded=0;" vertex="1" parent="1">
          <mxGeometry x="80" y="220" width="110" height="30" as="geometry" />
        </mxCell>
        <mxCell id="Qa7QMn2NVvZZ57gqNTlT-25" value="Proposed workflow" style="text;html=1;strokeColor=none;fillColor=none;align=center;verticalAlign=middle;whiteSpace=wrap;rounded=0;" vertex="1" parent="1">
          <mxGeometry x="310" y="220" width="110" height="30" as="geometry" />
        </mxCell>
      </root>
    </mxGraphModel>
  </diagram>
</mxfile>
